<?xml version="1.0" encoding="UTF-8"?>
<svg id="Layer_1" xmlns="http://www.w3.org/2000/svg" version="1.1" xmlns:xlink="http://www.w3.org/1999/xlink" viewBox="0 0 512 512">
  <!-- Generator: Adobe Illustrator 29.3.1, SVG Export Plug-In . SVG Version: 2.1.0 Build 151)  -->
  <defs>
    <style>
      .st0 {
        fill: #fffcee;
      }
    </style>
  </defs>
  <path class="st0" d="M512,256c0-10.8-6-20.6-15.7-25.4l-38.1-19.1,38.1-19.1s0,0,0,0c9.7-4.8,15.7-14.6,15.7-25.4s-6-20.6-15.7-25.4l-215.2-107.6c-15.7-7.8-34.5-7.8-50.2,0L15.7,141.7c-9.7,4.8-15.7,14.6-15.7,25.4s6,20.6,15.7,25.4l38.1,19.1-38.1,19.1c-9.7,4.8-15.7,14.6-15.7,25.4s6,20.6,15.7,25.4l38.1,19.1-38.1,19.1C6,324.4,0,334.1,0,344.9c0,10.8,6,20.6,15.7,25.4l215.2,107.6c7.9,3.9,16.5,5.9,25.1,5.9s17.2-2,25.1-5.9l215.2-107.6c9.7-4.8,15.7-14.6,15.7-25.4,0-10.8-6-20.5-15.7-25.4l-38.1-19.1,38.1-19.1c9.7-4.8,15.7-14.6,15.7-25.4ZM26.2,171.4c-2.3-1.2-2.7-3.2-2.7-4.3s.4-3.2,2.7-4.3L241.4,55.1c4.6-2.3,9.6-3.4,14.6-3.4s10,1.1,14.6,3.4l215.2,107.6c2.3,1.2,2.7,3.2,2.7,4.3s-.3,3.2-2.7,4.3l-215.2,107.6c-9.1,4.6-20,4.6-29.1,0L26.2,171.4ZM485.8,340.6c2.3,1.2,2.7,3.2,2.7,4.3,0,1.1-.3,3.2-2.7,4.4l-215.2,107.6c-9.1,4.6-20,4.6-29.1,0L26.2,349.3c-2.3-1.2-2.7-3.2-2.7-4.4,0-1.1.3-3.2,2.7-4.3l53.9-27,150.8,75.4c7.9,3.9,16.5,5.9,25.1,5.9s17.2-2,25.1-5.9l150.8-75.4,53.9,27ZM485.8,260.3l-215.2,107.6c-9.1,4.6-20,4.6-29.1,0L26.2,260.3c-2.3-1.2-2.7-3.2-2.7-4.3s.3-3.2,2.7-4.3l53.9-27,150.8,75.4c7.9,3.9,16.5,5.9,25.1,5.9s17.2-2,25.1-5.9l150.8-75.4,53.9,27c2.3,1.2,2.7,3.2,2.7,4.3,0,1.1-.3,3.2-2.7,4.3Z"/>
</svg>